
<svg id="Capa_1" enable-background="new 0 0 512 512" height="512" viewBox="0 0 512 512" width="512" xmlns="http://www.w3.org/2000/svg"><g><circle cx="256" cy="256" fill="#010066" r="256"/><path d="m509.832 289.403-212.146-212.145-16.98 16.98-2.94 2.94-26.471-26.47-44.235 44.235 26.471 26.471-19.333 19.333 44.088 44.088-28.902 28.902-17.177-17.177-36.754 36.754 80.458 80.458-5.37 5.37-128.787-128.786-13.261 32.68 6.399 6.399-46.837 46.838 93.814 93.814-16.092 16.092 105.764 105.764c1.485.025 2.968.056 4.459.056 130.063.001 237.463-96.995 253.832-222.596z" fill="#010066"/><path d="m229.151 119.068c0-14.805 12.044-26.849 26.849-26.849l11.824-15.572-11.824-16.647c-32.571 0-59.068 26.498-59.068 59.068 0 24.994 15.611 46.396 37.589 55.008v36.28h-59.069v42.959h59.069v153.665c-51.941-10.058-91.288-55.87-91.288-110.706h32.219l-53.699-85.918-53.699 85.918h32.219c.001 85.867 69.86 155.726 155.727 155.726l11.824-196-11.824-110.082c-14.805 0-26.849-12.045-26.849-26.85z" fill="#fff"/><path d="m411.726 296.274h32.219l-53.699-85.918-53.699 85.918h32.219c0 54.836-39.346 100.648-91.288 110.706v-153.665h59.069v-42.959h-59.069v-36.28c21.978-8.612 37.589-30.014 37.589-55.008.001-32.57-26.496-59.068-59.067-59.068v32.219c14.805 0 26.849 12.044 26.849 26.849s-12.044 26.85-26.849 26.85v306.082c85.867 0 155.726-69.859 155.726-155.726z" fill="#e9edf5"/></g></svg>